{"glyphs":{":":{"x_min":0,"x_max":318,"ha":318,"o":"m 49 54 q 49 81 68 100 q 87 119 113 119 q 140 119 158 100 q 177 81 177 54 q 177 28 158 10 q 140 -9 113 -9 q 86 -9 67 10 q 49 28 49 54 z m 93 388 q 93 414 111 433 q 130 451 156 451 q 183 451 202 433 q 221 415 221 388 q 221 361 202 342 q 183 323 156 323 q 129 323 111 342 q 93 361 93 388 z"},"$":{"x_min":0,"x_max":590,"ha":590,"o":"m 33 123 l 112 186 q 140 132 171 106 q 203 80 241 78 l 272 322 q 188 365 154 409 q 119 452 119 512 q 119 599 177 657 q 234 715 325 719 l 336 802 l 388 802 l 376 718 q 427 711 467 686 q 506 661 535 615 l 468 554 q 446 587 420 606 q 395 624 365 628 l 335 408 q 417 369 455 319 q 493 270 493 201 q 493 108 436 51 q 379 -6 279 -14 l 265 -119 l 213 -119 l 228 -15 q 162 -12 113 22 q 64 57 33 123 z m 320 294 l 291 82 q 333 92 357 122 q 381 151 381 194 q 381 227 365 252 q 350 277 320 294 z m 287 434 l 313 625 q 276 617 254 587 q 231 558 231 519 q 231 493 245 472 q 258 451 287 434 z"},"?":{"x_min":0,"x_max":519,"ha":519,"o":"m 137 47 q 137 74 156 93 q 174 111 202 111 q 229 111 248 93 q 267 74 267 47 q 267 20 248 0 q 229 -19 202 -19 q 175 -19 156 0 q 137 20 137 47 z m 414 312 q 406 238 362 198 q 318 157 245 157 q 172 157 127 196 q 82 235 82 298 q 82 354 110 391 q 138 428 219 469 l 234 477 q 350 534 350 585 q 350 611 329 629 q 307 647 275 647 q 240 647 218 625 q 195 604 191 567 l 94 567 q 99 643 150 688 q 200 732 281 732 q 360 732 407 691 q 454 649 454 580 q 454 535 425 498 q 396 462 334 428 q 317 418 286 403 q 180 348 180 306 q 180 279 198 263 q 215 247 244 247 q 274 247 292 264 q 310 280 314 312 z"},"<":{"x_min":0,"x_max":833,"ha":833,"o":"m 704 574 l 704 484 l 248 298 l 704 112 l 704 23 l 129 259 l 129 337 z"},"'":{"x_min":0,"x_max":163,"ha":163,"o":"m 42 701 l 122 701 l 122 429 l 42 429 z"},"=":{"x_min":0,"x_max":833,"ha":833,"o":"m 124 238 l 709 238 l 709 157 l 124 157 z m 124 440 l 709 440 l 709 358 l 124 358 z"},"a":{"x_min":0,"x_max":574,"ha":574,"o":"m 135 217 q 135 150 166 113 q 196 76 251 76 q 314 76 351 126 q 387 177 387 265 q 387 325 354 361 q 322 396 266 396 q 206 396 170 348 q 135 299 135 217 z m 458 0 l 353 0 l 361 51 q 333 16 298 -1 q 262 -18 216 -18 q 125 -18 75 39 q 26 97 26 202 q 26 327 86 403 q 147 479 245 479 q 292 479 331 460 q 371 440 405 401 l 414 463 l 519 463 z"},"L":{"x_min":0,"x_max":470,"ha":470,"o":"m 34 0 l 128 715 l 240 715 l 161 110 l 428 110 l 413 0 z"},"3":{"x_min":0,"x_max":590,"ha":590,"o":"m 150 189 l 150 183 q 150 136 182 107 q 214 77 264 77 q 327 77 365 114 q 403 150 403 210 q 403 264 365 292 q 327 320 254 320 l 236 320 l 248 409 q 252 409 257 408 q 262 408 272 408 q 344 408 384 440 q 425 472 425 528 q 425 576 396 602 q 367 628 313 628 q 265 628 234 603 q 204 577 196 531 l 90 531 q 103 620 164 671 q 225 722 318 722 q 415 722 474 673 q 533 625 533 546 q 533 479 494 430 q 456 382 387 363 q 450 343 481 301 q 512 258 512 194 q 512 102 442 42 q 373 -18 261 -18 q 157 -18 98 37 q 40 91 38 189 z"},";":{"x_min":0,"x_max":318,"ha":318,"o":"m 93 388 q 93 414 112 433 q 130 451 157 451 q 184 451 203 433 q 221 415 221 388 q 221 361 202 342 q 184 323 157 323 q 130 323 112 342 q 93 361 93 388 z m 112 143 l 199 92 l 29 -143 l -29 -108 z"},"J":{"x_min":0,"x_max":400,"ha":400,"o":"m 49 140 q 61 112 79 98 q 96 83 118 83 q 177 83 198 249 q 201 268 202 278 l 259 715 l 372 715 l 316 290 l 314 273 q 291 88 256 40 q 235 11 200 -4 q 166 -20 121 -20 q 65 -20 28 3 q -10 26 -35 76 z"},"V":{"x_min":0,"x_max":588,"ha":588,"o":"m 13 715 l 125 715 l 239 288 q 248 255 252 235 q 256 215 259 199 q 270 227 281 249 q 291 272 301 290 l 530 715 l 650 715 l 227 -28 z"},"\"":{"x_min":0,"x_max":314,"ha":314,"o":"m 193 701 l 273 701 l 273 429 l 193 429 z m 42 701 l 122 701 l 122 429 l 42 429 z"},"7":{"x_min":0,"x_max":590,"ha":590,"o":"m 81 22 l 424 616 l 103 616 l 115 708 l 596 708 l 170 -29 z"},"S":{"x_min":0,"x_max":520,"ha":520,"o":"m -9 123 l 70 188 q 99 129 133 103 q 167 77 212 77 q 269 77 304 110 q 339 144 339 197 q 339 234 320 260 q 302 287 255 314 q 245 320 226 331 q 146 375 118 406 q 98 428 88 457 q 78 485 78 519 q 78 613 139 673 q 199 732 297 732 q 363 732 412 705 q 462 678 494 625 l 426 562 q 402 601 373 620 q 343 639 307 639 q 254 639 222 608 q 189 578 189 529 q 189 470 283 419 q 307 407 319 400 q 391 358 421 313 q 451 268 451 202 q 451 101 386 41 q 320 -19 208 -19 q 132 -19 78 16 q 24 51 -9 123 z"},"}":{"x_min":0,"x_max":500,"ha":500,"o":"m 74 721 l 96 721 q 152 721 184 716 q 215 710 237 697 q 265 681 276 650 q 287 620 287 550 l 287 429 q 287 359 312 330 q 338 302 400 302 q 403 302 410 302 q 417 303 421 303 l 421 216 q 417 216 410 216 q 403 217 400 217 q 338 217 313 188 q 287 159 287 89 l 287 -32 q 287 -102 276 -132 q 265 -162 237 -178 q 216 -191 184 -197 q 152 -202 96 -202 l 74 -202 l 74 -116 q 78 -116 85 -117 q 93 -117 96 -117 q 149 -117 168 -97 q 187 -76 187 -11 l 187 106 q 187 181 209 213 q 231 245 287 259 q 231 272 209 304 q 187 336 187 412 l 187 530 q 187 594 168 615 q 150 635 97 635 q 94 635 86 634 q 78 634 74 634 z"},"Z":{"x_min":0,"x_max":574,"ha":574,"o":"m -29 0 l 393 609 l 77 609 l 91 715 l 596 715 l 175 106 l 525 106 l 511 0 z"},"x":{"x_min":0,"x_max":477,"ha":477,"o":"m -44 0 l 160 242 l 27 463 l 145 463 l 209 350 q 211 347 214 341 q 228 318 232 304 q 241 320 250 333 q 258 345 265 353 l 357 463 l 481 463 l 291 241 l 434 0 l 314 0 l 237 145 q 232 153 229 162 q 225 171 222 181 q 213 168 202 152 q 191 135 189 133 l 80 0 z"},")":{"x_min":0,"x_max":326,"ha":326,"o":"m 142 762 q 186 667 207 568 q 229 470 229 367 q 229 199 173 46 q 117 -107 8 -238 l -52 -191 q 45 -69 96 73 q 147 214 147 366 q 147 463 126 556 q 106 648 66 731 z"},"&":{"x_min":0,"x_max":645,"ha":645,"o":"m 295 467 q 360 512 380 536 q 401 561 401 585 q 401 616 381 633 q 361 650 326 650 q 293 650 273 631 q 254 612 254 581 q 254 559 264 531 q 274 503 295 467 z m 391 158 q 360 201 330 248 q 299 295 265 352 q 181 303 146 264 q 112 225 112 179 q 112 132 144 101 q 176 71 226 71 q 264 71 303 92 q 342 112 391 158 z m 503 0 l 440 84 q 385 30 331 6 q 277 -19 215 -19 q 124 -19 69 34 q 14 86 14 174 q 14 248 60 304 q 105 361 218 423 q 187 474 174 510 q 160 546 160 579 q 160 650 205 692 q 250 733 328 733 q 403 733 447 696 q 491 658 491 594 q 491 539 456 494 q 421 449 337 400 q 363 357 394 313 q 424 270 459 222 l 551 323 l 609 255 l 508 149 l 620 0 z"},"_":{"x_min":0,"x_max":500,"ha":500,"o":"m 0 -152 l 500 -152 l 500 -236 l 0 -236 z"},"v":{"x_min":0,"x_max":465,"ha":465,"o":"m 169 -28 l -8 463 l 101 463 l 173 241 q 179 223 183 201 q 187 180 189 157 q 195 176 204 196 q 212 215 224 235 l 357 463 l 476 463 z"},"O":{"x_min":0,"x_max":851,"ha":851,"o":"m 691 381 q 691 494 622 563 q 554 632 441 632 q 385 632 335 611 q 284 590 247 551 q 204 507 182 451 q 159 395 159 333 q 159 221 227 152 q 294 82 403 82 q 525 82 608 168 q 691 253 691 381 z m 447 732 q 610 732 707 637 q 803 542 803 383 q 803 297 772 222 q 740 146 682 91 q 626 38 552 10 q 479 -18 395 -18 q 239 -18 144 78 q 48 173 48 329 q 48 416 79 492 q 109 568 167 623 q 222 675 294 704 q 367 732 447 732 z"},"(":{"x_min":0,"x_max":326,"ha":326,"o":"m 157 -238 q 113 -143 92 -44 q 70 54 70 157 q 70 325 126 478 q 182 631 291 762 l 351 716 q 253 595 203 452 q 152 310 152 158 q 152 62 173 -31 q 193 -125 233 -207 z"},"C":{"x_min":0,"x_max":671,"ha":671,"o":"m 653 668 l 635 546 q 593 589 545 611 q 496 632 439 632 q 380 632 330 612 q 280 591 245 553 q 204 509 181 451 q 159 393 159 331 q 159 221 227 151 q 294 82 402 82 q 456 82 505 101 q 555 119 601 156 l 576 19 q 527 0 482 -10 q 438 -19 396 -19 q 240 -19 144 76 q 48 172 48 327 q 48 413 78 490 q 109 568 165 624 q 217 676 285 704 q 352 731 429 731 q 499 731 554 715 q 609 700 653 668 z"},"W":{"x_min":0,"x_max":913,"ha":913,"o":"m 15 715 l 131 715 l 226 290 q 230 268 233 252 q 236 235 237 221 q 246 244 254 263 q 262 281 266 289 l 494 743 l 617 283 q 619 275 621 261 q 624 248 627 221 q 634 244 640 263 q 646 281 650 291 l 833 715 l 959 715 l 606 -28 l 480 438 q 479 441 475 466 q 471 488 468 503 q 460 479 453 460 q 446 442 442 433 l 203 -28 z"},"A":{"x_min":0,"x_max":623,"ha":623,"o":"m -55 0 l 359 743 l 620 0 l 504 0 l 446 169 l 161 169 l 67 0 z m 206 264 l 415 264 l 360 441 q 356 454 352 475 q 347 496 341 530 q 330 504 320 482 q 309 459 299 439 z"},"f":{"x_min":0,"x_max":315,"ha":315,"o":"m 46 0 l 95 373 l 11 373 l 23 463 l 106 463 l 122 578 q 136 684 170 725 q 205 766 277 766 q 300 766 320 762 q 341 758 361 749 l 349 658 q 331 666 317 669 q 304 673 293 673 q 263 673 249 651 q 234 629 225 562 l 212 463 l 306 463 l 294 373 l 200 373 l 151 0 z"},"Q":{"x_min":0,"x_max":851,"ha":851,"o":"m 394 213 l 528 213 l 584 147 q 636 190 664 251 q 692 312 692 382 q 692 494 623 562 q 555 631 442 631 q 385 631 336 611 q 287 590 248 551 q 205 506 182 450 q 159 394 159 333 q 159 223 227 152 q 294 82 398 82 q 419 82 443 85 q 466 89 491 96 z m 638 -76 l 560 14 q 519 -2 480 -10 q 441 -18 404 -18 q 240 -18 144 76 q 48 169 48 329 q 48 416 79 492 q 109 568 167 623 q 223 676 295 704 q 367 732 449 732 q 610 732 707 637 q 803 542 803 385 q 803 288 764 205 q 725 122 653 66 l 772 -76 z"},"w":{"x_min":0,"x_max":756,"ha":756,"o":"m -2 463 l 104 463 l 179 227 q 180 225 181 221 q 195 177 196 156 q 201 173 210 192 q 218 210 231 232 l 386 497 l 462 224 q 466 209 469 193 q 472 177 474 156 q 481 176 489 193 q 497 209 504 222 l 644 463 l 763 463 l 449 -29 l 371 230 q 367 244 364 260 q 360 275 358 295 q 347 272 339 256 q 331 239 326 232 l 169 -29 z"},"-":{"x_min":0,"x_max":366,"ha":366,"o":"m 35 183 l 47 277 l 297 277 l 285 183 z"},"E":{"x_min":0,"x_max":544,"ha":544,"o":"m 34 0 l 128 715 l 529 715 l 516 614 l 226 614 l 203 434 l 492 434 l 479 334 l 189 334 l 159 103 l 449 103 l 435 0 z"},"s":{"x_min":0,"x_max":403,"ha":403,"o":"m 46 136 q 72 100 103 81 q 134 62 168 62 q 201 62 221 77 q 241 92 241 116 q 241 151 167 192 l 163 194 q 92 234 70 263 q 48 292 48 333 q 48 398 96 439 q 145 480 222 480 q 270 480 310 462 q 350 445 385 409 l 320 342 q 297 370 270 384 q 242 399 211 399 q 186 399 168 384 q 151 369 151 348 q 151 314 213 284 q 236 272 249 265 q 303 235 324 206 q 344 176 344 133 q 344 63 296 22 q 248 -19 166 -19 q 112 -19 66 3 q 20 24 -15 66 z"},">":{"x_min":0,"x_max":833,"ha":833,"o":"m 129 574 l 704 337 l 704 259 l 129 23 l 129 112 l 585 298 l 129 484 z"},"l":{"x_min":0,"x_max":257,"ha":257,"o":"m 135 0 l 30 0 l 129 757 l 234 757 z"},"8":{"x_min":0,"x_max":590,"ha":590,"o":"m 152 190 q 152 140 185 108 q 217 77 270 77 q 329 77 367 115 q 405 154 405 214 q 405 265 372 294 q 339 324 284 324 q 227 324 189 286 q 152 249 152 190 z m 210 518 q 210 473 237 448 q 264 422 311 422 q 363 422 394 454 q 425 486 425 540 q 425 579 397 604 q 369 630 326 630 q 273 630 242 599 q 210 569 210 518 z m 204 388 q 153 415 129 451 q 105 487 105 535 q 105 618 167 670 q 229 722 330 722 q 424 722 479 675 q 533 628 533 549 q 533 487 497 443 q 460 399 391 377 q 449 360 481 318 q 512 276 512 215 q 512 110 445 46 q 377 -18 266 -18 q 162 -18 103 37 q 44 91 44 187 q 44 262 84 313 q 125 363 204 388 z"},"\\":{"x_min":0,"x_max":463,"ha":463,"o":"m 382 -93 l 300 -93 l 81 731 l 162 731 z"},"e":{"x_min":0,"x_max":538,"ha":538,"o":"m 138 287 l 377 287 q 375 334 348 361 q 320 388 274 388 q 221 388 185 361 q 148 333 138 287 z m 371 142 l 447 83 q 406 30 359 5 q 312 -19 250 -19 q 147 -19 83 43 q 20 105 20 207 q 20 326 93 403 q 166 479 279 479 q 373 479 429 421 q 485 362 485 264 q 485 256 484 243 q 483 230 482 212 l 129 212 q 129 149 161 112 q 192 74 245 74 q 282 74 315 92 q 348 110 371 142 z"},"b":{"x_min":0,"x_max":574,"ha":574,"o":"m 409 247 q 409 315 380 351 q 350 386 294 386 q 230 386 194 335 q 157 285 157 196 q 157 137 191 100 q 225 64 280 64 q 339 64 374 113 q 409 162 409 247 z m 125 757 l 230 757 l 186 417 q 217 448 252 464 q 287 479 328 479 q 419 479 469 422 q 518 365 518 259 q 518 133 457 57 q 396 -19 297 -19 q 253 -19 215 0 q 177 18 139 59 l 130 0 l 25 0 z"},"%":{"x_min":0,"x_max":731,"ha":731,"o":"m 201 666 q 163 666 137 618 q 111 569 111 497 q 111 452 124 429 q 137 407 164 407 q 202 407 228 457 q 254 507 254 584 q 254 625 240 645 q 227 666 201 666 z m 200 723 q 267 723 301 684 q 334 644 334 565 q 334 472 286 410 q 237 349 165 349 q 98 349 64 388 q 30 427 30 504 q 30 601 78 662 q 125 723 200 723 z m 573 296 q 535 296 509 248 q 483 200 483 127 q 483 82 496 59 q 509 37 536 37 q 574 37 600 87 q 626 137 626 213 q 626 254 613 275 q 599 296 573 296 z m 572 354 q 639 354 672 314 q 706 273 706 194 q 706 101 658 41 q 610 -20 537 -20 q 470 -20 436 19 q 402 57 402 134 q 402 231 450 292 q 498 354 572 354 z m 122 -20 l 537 723 l 609 723 l 193 -20 z"},"m":{"x_min":0,"x_max":850,"ha":850,"o":"m 631 0 l 666 267 q 667 276 668 285 q 669 294 669 303 q 669 350 650 374 q 630 399 594 399 q 537 399 505 358 q 474 317 462 228 l 433 0 l 327 0 l 361 267 q 362 281 363 287 q 363 294 363 300 q 363 350 344 375 q 325 399 285 399 q 231 399 200 358 q 170 317 158 228 l 129 0 l 25 0 l 86 463 l 190 463 l 175 407 q 211 443 251 461 q 290 479 334 479 q 384 479 416 458 q 448 437 465 393 q 506 438 547 458 q 589 479 638 479 q 704 479 740 441 q 777 403 777 333 q 777 318 775 299 q 774 279 770 246 l 738 0 z"},"#":{"x_min":0,"x_max":769,"ha":769,"o":"m 346 416 l 302 292 l 427 292 l 471 416 z m 359 713 l 452 713 l 377 500 l 499 500 l 575 713 l 668 713 l 593 500 l 735 500 l 706 416 l 563 416 l 519 293 l 670 293 l 640 209 l 490 209 l 414 -3 l 321 -3 l 397 209 l 274 209 l 197 -3 l 104 -3 l 180 209 l 34 209 l 64 293 l 209 293 l 253 416 l 99 416 l 129 500 l 283 500 z"},",":{"x_min":0,"x_max":295,"ha":295,"o":"m 105 143 l 192 92 l 22 -143 l -36 -108 z"},"n":{"x_min":0,"x_max":576,"ha":576,"o":"m 359 0 l 394 266 q 395 273 396 281 q 396 290 396 305 q 396 351 374 375 q 352 399 310 399 q 245 399 208 357 q 170 314 159 227 l 130 0 l 25 0 l 86 463 l 187 463 l 179 407 q 219 444 262 461 q 305 479 353 479 q 424 479 464 442 q 504 404 504 337 q 504 320 502 297 q 500 274 496 244 l 464 0 z"},"h":{"x_min":0,"x_max":576,"ha":576,"o":"m 359 0 l 394 267 q 395 274 396 282 q 396 291 396 306 q 396 352 374 375 q 352 399 310 399 q 245 399 208 357 q 170 315 159 228 l 130 0 l 25 0 l 125 757 l 230 757 l 184 410 q 224 445 265 462 q 307 479 353 479 q 424 479 464 441 q 504 404 504 337 q 504 312 497 254 q 497 249 496 245 l 464 0 z"},"z":{"x_min":0,"x_max":472,"ha":472,"o":"m -22 0 l 228 326 q 237 338 249 350 q 261 362 277 375 l 48 375 l 59 463 l 458 463 l 205 134 q 195 121 184 109 q 173 98 161 88 l 421 88 l 410 0 z"},"B":{"x_min":0,"x_max":574,"ha":574,"o":"m 158 98 l 230 98 q 279 98 303 102 q 327 105 345 113 q 374 126 391 154 q 407 182 407 218 q 407 274 372 297 q 337 320 239 320 l 187 320 z m 226 618 l 200 417 l 241 417 q 343 417 381 442 q 420 467 420 526 q 420 577 388 597 q 356 618 265 618 z m 34 0 l 128 715 l 282 715 q 366 715 405 705 q 443 696 470 673 q 498 649 512 616 q 526 583 526 544 q 526 476 491 431 q 457 386 394 373 q 455 356 487 316 q 519 275 519 216 q 519 160 497 115 q 475 70 433 41 q 400 19 352 9 q 304 0 191 0 z"},"K":{"x_min":0,"x_max":602,"ha":602,"o":"m 34 0 l 128 715 l 240 715 l 202 421 l 487 715 l 626 715 l 291 377 l 581 0 l 444 0 l 190 337 l 146 0 z"},"R":{"x_min":0,"x_max":558,"ha":558,"o":"m 145 0 l 34 0 l 128 715 l 257 715 q 342 715 380 705 q 417 695 447 672 q 479 646 497 608 q 514 570 514 524 q 514 436 466 380 q 417 324 329 310 l 527 0 l 401 0 l 212 306 l 186 306 z m 197 397 l 219 397 q 325 397 363 423 q 401 450 401 514 q 401 569 369 591 q 337 613 244 613 l 226 613 z"},"T":{"x_min":0,"x_max":509,"ha":509,"o":"m 147 0 l 228 612 l 35 612 l 49 715 l 537 715 l 523 612 l 341 612 l 260 0 z"},"P":{"x_min":0,"x_max":549,"ha":549,"o":"m 199 407 l 237 407 q 342 407 381 432 q 419 458 419 519 q 419 571 387 592 q 354 613 262 613 l 226 613 z m 146 0 l 34 0 l 128 715 l 276 715 q 361 715 399 705 q 437 695 466 672 q 498 646 515 609 q 532 571 532 524 q 532 469 512 425 q 493 381 455 352 q 423 327 379 316 q 336 305 245 305 l 213 305 l 186 305 z"},"|":{"x_min":0,"x_max":500,"ha":500,"o":"m 207 764 l 294 764 l 294 -236 l 207 -236 z"},"t":{"x_min":0,"x_max":292,"ha":292,"o":"m 37 0 l 86 373 l 6 373 l 18 463 l 97 463 l 120 638 l 225 638 l 203 463 l 287 463 l 275 373 l 191 373 l 142 0 z"},"M":{"x_min":0,"x_max":884,"ha":884,"o":"m 701 364 l 701 381 q 701 402 702 422 q 703 442 705 463 q 699 443 688 423 q 677 402 656 371 l 398 -29 l 250 370 q 245 384 238 405 q 232 425 221 463 q 219 433 201 368 l 200 366 l 93 0 l -21 0 l 214 745 l 387 282 q 400 248 408 223 q 417 199 423 175 q 436 203 450 230 q 465 257 483 284 l 784 745 l 817 0 l 706 0 z"},"g":{"x_min":0,"x_max":574,"ha":574,"o":"m 135 224 q 135 160 166 123 q 197 87 251 87 q 313 87 351 135 q 388 183 388 264 q 388 326 355 362 q 322 399 266 399 q 207 399 171 351 q 135 304 135 224 z m 458 6 q 443 -108 385 -163 q 327 -218 221 -218 q 127 -218 68 -172 q 10 -126 0 -45 l 96 -32 q 102 -81 132 -104 q 163 -127 221 -127 q 292 -127 323 -88 q 353 -48 360 59 q 330 27 294 12 q 258 -4 216 -4 q 126 -4 76 53 q 26 109 26 211 q 26 331 87 405 q 148 479 245 479 q 291 479 331 460 q 371 441 407 403 l 416 463 l 519 463 z"},"j":{"x_min":0,"x_max":257,"ha":257,"o":"m 99 625 q 99 651 117 669 q 136 687 162 687 q 188 687 206 669 q 224 651 224 625 q 224 598 206 580 q 188 562 162 562 q 135 562 117 580 q 99 598 99 625 z m 106 -218 l 1 -218 l 91 463 l 196 463 z"},"i":{"x_min":0,"x_max":257,"ha":257,"o":"m 99 625 q 99 651 117 669 q 136 687 162 687 q 188 687 206 669 q 224 651 224 625 q 224 598 206 580 q 188 562 162 562 q 135 562 117 580 q 99 598 99 625 z m 30 0 l 91 463 l 196 463 l 135 0 z"},"y":{"x_min":0,"x_max":465,"ha":465,"o":"m 65 -218 l -45 -218 l 142 75 l 8 463 l 117 463 l 186 240 q 190 228 194 206 q 197 184 201 152 q 208 172 218 193 q 228 213 240 234 l 374 463 l 491 463 z"},"@":{"x_min":0,"x_max":1000,"ha":1000,"o":"m 573 138 q 546 96 511 76 q 475 56 425 56 q 351 56 311 98 q 272 141 272 220 q 272 334 339 413 q 407 492 502 492 q 545 492 575 475 q 604 458 623 423 l 650 475 l 725 475 l 653 189 q 652 187 652 183 q 649 169 649 165 q 649 146 662 135 q 675 124 696 124 q 721 124 748 139 q 776 154 800 180 q 835 217 854 267 q 872 316 872 372 q 872 496 781 573 q 689 650 542 650 q 475 650 417 635 q 359 620 312 589 q 224 534 176 447 q 128 360 128 254 q 128 102 230 10 q 333 -81 503 -81 q 584 -81 661 -57 q 738 -33 803 12 l 836 -36 q 763 -91 680 -119 q 598 -147 507 -147 q 413 -147 335 -124 q 258 -100 198 -54 q 123 3 85 80 q 48 157 48 255 q 48 335 73 408 q 99 480 148 541 q 220 628 321 674 q 421 719 545 719 q 626 719 699 697 q 771 675 823 635 q 888 585 920 520 q 952 455 952 373 q 952 294 920 226 q 889 157 830 110 q 796 83 757 69 q 717 55 675 55 q 623 55 598 75 q 573 95 573 136 z m 602 345 q 595 386 572 409 q 549 431 512 431 q 450 431 406 368 q 362 306 362 217 q 362 169 384 143 q 406 117 447 117 q 491 117 527 150 q 562 182 575 234 z"},".":{"x_min":0,"x_max":295,"ha":295,"o":"m 47 54 q 47 81 65 100 q 84 119 111 119 q 138 119 156 100 q 175 81 175 54 q 175 28 156 10 q 138 -9 111 -9 q 84 -9 65 10 q 47 28 47 54 z"},"p":{"x_min":0,"x_max":574,"ha":574,"o":"m 409 246 q 409 313 379 350 q 350 386 295 386 q 230 386 194 336 q 157 287 157 199 q 157 140 190 104 q 223 69 279 69 q 339 69 374 116 q 409 164 409 246 z m 86 463 l 186 463 l 181 414 q 213 447 249 463 q 286 479 328 479 q 419 479 469 422 q 518 366 518 261 q 518 138 458 62 q 397 -14 300 -14 q 253 -14 213 5 q 173 25 138 65 l 101 -219 l -4 -219 z"},"X":{"x_min":0,"x_max":567,"ha":567,"o":"m -37 0 l 219 361 l 46 715 l 161 715 l 268 495 q 269 494 271 490 q 288 454 293 434 q 296 447 303 460 q 310 474 322 491 l 478 715 l 606 715 l 349 355 l 523 0 l 406 0 l 298 223 q 293 234 288 250 q 283 265 278 283 q 272 267 265 254 q 258 241 249 228 l 89 0 z"},"*":{"x_min":0,"x_max":440,"ha":440,"o":"m 77 514 l 197 555 l 91 626 l 130 678 l 223 594 l 228 715 l 294 707 l 269 589 l 379 648 l 405 588 l 284 546 l 390 475 l 350 424 l 259 508 l 254 387 l 188 394 l 213 513 l 103 454 z"},"Y":{"x_min":0,"x_max":588,"ha":588,"o":"m 25 715 l 146 715 l 265 475 q 271 465 284 432 q 289 419 292 412 q 299 425 309 441 q 319 456 334 478 l 497 715 l 625 715 l 339 318 l 297 0 l 184 0 l 227 322 z"},"c":{"x_min":0,"x_max":468,"ha":468,"o":"m 425 331 q 394 358 359 373 q 325 387 289 387 q 218 387 174 337 q 129 288 129 208 q 129 146 162 110 q 195 74 253 74 q 288 74 325 86 q 362 99 400 123 l 378 11 q 349 -4 317 -11 q 286 -19 250 -19 q 146 -19 83 43 q 20 104 20 207 q 20 327 95 403 q 171 479 290 479 q 334 479 373 467 q 411 456 447 431 z"},"!":{"x_min":0,"x_max":318,"ha":318,"o":"m 81 165 l 157 731 l 264 731 l 189 165 z m 54 47 q 54 74 73 92 q 92 111 119 111 q 146 111 165 93 q 184 74 184 47 q 184 20 165 0 q 146 -19 119 -19 q 92 -19 73 0 q 54 20 54 47 z"},"/":{"x_min":0,"x_max":463,"ha":463,"o":"m 0 -93 l 382 731 l 463 731 l 81 -93 z"},"[":{"x_min":0,"x_max":326,"ha":326,"o":"m 46 -207 l 169 731 l 351 731 l 341 653 l 250 653 l 147 -128 l 238 -128 l 228 -207 z"},"6":{"x_min":0,"x_max":590,"ha":590,"o":"m 488 675 l 269 422 q 286 425 299 426 q 312 427 324 427 q 417 427 472 371 q 528 315 528 222 q 528 119 451 49 q 375 -20 259 -20 q 159 -20 99 38 q 39 97 39 193 q 39 310 207 503 l 227 527 l 414 743 z m 290 348 q 230 348 189 305 q 149 263 149 199 q 149 143 182 109 q 216 75 272 75 q 335 75 377 116 q 418 158 418 221 q 418 280 384 314 q 350 348 290 348 z"},"r":{"x_min":0,"x_max":359,"ha":359,"o":"m 341 370 q 330 378 318 382 q 305 386 291 386 q 235 386 203 345 q 170 303 159 217 l 130 0 l 25 0 l 86 463 l 187 463 l 179 403 q 207 441 239 460 q 271 479 309 479 q 326 479 343 475 q 359 470 375 461 z"},"2":{"x_min":0,"x_max":590,"ha":590,"o":"m -5 0 l 281 287 q 379 385 407 431 q 435 477 435 521 q 435 574 403 602 q 371 631 312 631 q 259 631 223 594 q 188 558 183 496 l 74 496 q 79 603 144 663 q 209 722 322 722 q 428 722 487 670 q 547 619 547 528 q 547 457 504 388 q 462 319 302 164 l 232 96 l 499 96 l 479 0 z"},"{":{"x_min":0,"x_max":500,"ha":500,"o":"m 427 721 l 427 634 q 423 634 415 634 q 407 635 404 635 q 351 635 332 615 q 313 594 313 530 l 313 412 q 313 336 292 304 q 270 272 214 259 q 270 246 291 214 q 313 182 313 106 l 313 -11 q 313 -76 332 -96 q 352 -117 405 -117 q 408 -117 416 -117 q 423 -116 427 -116 l 427 -202 l 396 -202 q 346 -202 315 -196 q 284 -190 263 -178 q 235 -162 224 -131 q 213 -101 213 -32 l 213 89 q 213 159 187 188 q 162 217 100 217 q 97 217 90 216 q 83 216 79 216 l 79 303 q 83 303 90 302 q 97 302 100 302 q 162 302 187 331 q 213 359 213 429 l 213 550 q 213 621 224 651 q 235 681 263 697 q 285 710 316 716 q 348 721 405 721 z"},"9":{"x_min":0,"x_max":590,"ha":590,"o":"m 298 354 q 358 354 398 397 q 438 439 438 503 q 438 560 405 593 q 372 627 316 627 q 253 627 211 586 q 170 544 170 481 q 170 422 204 388 q 238 354 298 354 z m 100 27 l 319 280 q 302 277 289 276 q 276 275 264 275 q 171 275 116 331 q 60 386 60 479 q 60 583 136 653 q 212 722 328 722 q 428 722 489 664 q 549 605 549 509 q 549 392 381 199 l 361 175 l 174 -41 z"}," ":{"x_min":0,"x_max":295,"ha":295,"o":""},"I":{"x_min":0,"x_max":278,"ha":278,"o":"m 35 0 l 129 715 l 243 715 l 148 0 z"},"H":{"x_min":0,"x_max":731,"ha":731,"o":"m 34 0 l 128 715 l 240 715 l 204 444 l 550 444 l 585 715 l 698 715 l 603 0 l 491 0 l 536 342 l 191 342 l 146 0 z"},"4":{"x_min":0,"x_max":590,"ha":590,"o":"m 345 244 l 373 433 q 377 459 380 477 q 384 494 388 511 q 369 485 355 468 q 341 451 334 442 l 162 244 z m 310 0 l 330 153 l -21 153 l -21 170 l 475 722 l 510 722 l 447 245 l 529 245 l 517 153 l 435 153 l 415 0 z"},"~":{"x_min":0,"x_max":833,"ha":833,"o":"m 747 383 l 747 293 q 697 258 651 241 q 604 224 561 224 q 540 224 516 228 q 492 232 468 241 q 456 245 431 254 q 327 290 275 290 q 235 290 190 271 q 145 253 87 212 l 87 303 q 139 338 186 356 q 232 373 276 373 q 306 373 337 367 q 368 361 419 344 q 426 342 440 336 q 520 308 562 308 q 604 308 648 326 q 693 344 747 383 z"},"D":{"x_min":0,"x_max":726,"ha":726,"o":"m 159 102 l 200 102 q 321 102 371 113 q 421 125 458 151 q 507 187 535 246 q 562 306 562 377 q 562 438 540 488 q 518 537 477 568 q 445 592 405 603 q 365 613 274 613 l 226 613 z m 34 0 l 128 715 l 280 715 q 398 715 456 700 q 513 685 559 650 q 617 606 647 537 q 678 468 678 382 q 678 306 654 237 q 630 168 585 117 q 553 81 513 55 q 474 30 427 17 q 396 8 360 4 q 325 0 272 0 l 203 0 z"},"^":{"x_min":0,"x_max":1000,"ha":1000,"o":"m 447 713 l 553 713 l 795 439 l 694 439 l 500 633 l 305 439 l 204 439 z"},"0":{"x_min":0,"x_max":590,"ha":590,"o":"m 325 626 q 247 626 199 528 q 152 430 152 265 q 152 171 179 125 q 206 78 260 78 q 341 78 389 174 q 437 270 437 433 q 437 533 410 579 q 383 626 325 626 z m 551 426 q 551 332 529 249 q 508 166 467 102 q 428 42 375 11 q 321 -19 255 -19 q 151 -19 95 58 q 39 134 39 277 q 39 372 61 455 q 82 538 123 602 q 162 663 214 692 q 267 722 334 722 q 439 722 495 646 q 551 569 551 426 z"},"F":{"x_min":0,"x_max":535,"ha":535,"o":"m 34 0 l 128 715 l 529 715 l 516 614 l 226 614 l 203 434 l 492 434 l 479 334 l 189 334 l 146 0 z"},"`":{"x_min":0,"x_max":500,"ha":500,"o":"m 340 533 l 283 533 l 135 704 l 239 704 z"},"k":{"x_min":0,"x_max":523,"ha":523,"o":"m 25 0 l 125 757 l 230 757 l 165 266 l 400 463 l 536 463 l 283 250 l 480 0 l 353 0 l 163 246 l 130 0 z"},"u":{"x_min":0,"x_max":571,"ha":571,"o":"m 82 463 l 187 463 l 162 269 q 161 263 160 251 q 151 188 151 167 q 151 122 176 98 q 201 74 247 74 q 312 74 341 109 q 371 145 384 245 l 413 463 l 518 463 l 487 228 q 475 137 459 100 q 444 63 416 37 q 386 9 342 -5 q 297 -19 240 -19 q 143 -19 94 25 q 45 69 45 156 q 45 179 54 248 l 54 249 z"},"]":{"x_min":0,"x_max":326,"ha":326,"o":"m 256 731 l 132 -207 l -50 -207 l -40 -128 l 51 -128 l 154 653 l 63 653 l 73 731 z"},"U":{"x_min":0,"x_max":722,"ha":722,"o":"m 233 715 l 178 300 q 175 277 173 258 q 172 239 172 225 q 172 157 211 120 q 250 84 323 84 q 377 84 416 102 q 456 120 483 157 q 519 205 534 330 q 536 344 537 351 l 585 715 l 697 715 l 644 313 q 630 210 614 165 q 598 119 569 84 q 527 33 461 6 q 396 -20 311 -20 q 189 -20 125 41 q 61 101 61 216 q 61 241 65 287 q 69 332 77 388 l 120 715 z"},"o":{"x_min":0,"x_max":571,"ha":571,"o":"m 285 387 q 215 387 171 337 q 127 287 127 208 q 127 146 160 110 q 193 74 251 74 q 324 74 367 122 q 411 170 411 251 q 411 316 378 352 q 345 387 285 387 z m 284 480 q 392 480 457 417 q 521 354 521 248 q 521 131 445 56 q 370 -19 251 -19 q 145 -19 82 43 q 18 105 18 208 q 18 328 92 404 q 167 480 284 480 z"},"N":{"x_min":0,"x_max":793,"ha":793,"o":"m 34 0 l 131 743 l 521 296 q 542 271 559 250 q 576 228 591 206 q 591 229 593 254 q 595 279 600 317 l 654 715 l 759 715 l 662 -28 l 271 419 q 245 449 229 470 q 213 491 201 510 q 200 477 191 408 q 190 401 190 398 l 139 0 z"},"+":{"x_min":0,"x_max":833,"ha":833,"o":"m 375 596 l 458 596 l 458 339 l 709 339 l 709 258 l 458 258 l 458 0 l 375 0 l 375 258 l 124 258 l 124 339 l 375 339 z"},"G":{"x_min":0,"x_max":811,"ha":811,"o":"m 677 512 q 630 573 572 602 q 514 632 443 632 q 386 632 336 611 q 286 591 248 552 q 205 507 182 451 q 159 395 159 334 q 159 221 228 152 q 296 83 408 83 q 497 83 558 133 q 619 182 629 262 l 444 262 l 456 364 l 761 364 q 761 187 665 84 q 568 -18 402 -18 q 242 -18 145 77 q 48 172 48 330 q 48 418 78 494 q 109 570 166 624 q 221 677 293 704 q 365 732 448 732 q 547 732 619 698 q 692 664 756 587 z"},"q":{"x_min":0,"x_max":574,"ha":574,"o":"m 135 217 q 135 150 166 112 q 196 74 250 74 q 313 74 350 125 q 387 176 387 265 q 387 325 354 360 q 321 396 266 396 q 206 396 170 348 q 135 299 135 217 z m 429 -218 l 324 -218 l 359 44 q 328 12 292 -3 q 257 -19 216 -19 q 125 -19 75 38 q 26 96 26 201 q 26 326 86 403 q 147 479 245 479 q 292 479 331 460 q 371 441 407 401 l 416 463 l 519 463 z"},"d":{"x_min":0,"x_max":574,"ha":574,"o":"m 135 216 q 135 149 166 112 q 196 74 251 74 q 314 74 351 125 q 387 176 387 265 q 387 325 354 361 q 322 396 266 396 q 206 396 170 347 q 135 299 135 216 z m 459 0 l 356 0 l 362 47 q 331 14 295 -3 q 259 -19 216 -19 q 125 -19 75 38 q 26 96 26 201 q 26 326 86 403 q 147 479 244 479 q 292 479 333 459 q 374 439 406 399 l 453 757 l 558 757 z"},"1":{"x_min":0,"x_max":590,"ha":590,"o":"m 231 0 l 312 613 l 171 613 l 222 708 l 434 708 l 340 0 z"},"5":{"x_min":0,"x_max":590,"ha":590,"o":"m 85 162 q 113 119 150 98 q 188 77 234 77 q 307 77 358 125 q 408 174 408 243 q 408 315 366 355 q 325 395 250 395 q 214 395 177 381 q 141 368 95 337 l 76 346 l 182 708 l 528 708 l 516 619 l 263 619 l 220 480 q 236 482 251 483 q 266 484 278 484 q 385 484 450 419 q 516 354 516 250 q 516 136 438 58 q 359 -20 243 -20 q 165 -20 109 7 q 53 34 8 93 z"}}}
